<svg width="1440" height="12" viewBox="0 0 1440 12" fill="none" xmlns="http://www.w3.org/2000/svg">
<g id="Color-Bar">
<path id="Rectangle" d="M144 0H0V12H144V0Z" fill="#CDDBE3"/>
<path id="Rectangle_2" d="M719 0H575V12H719V0Z" fill="#CDDBE3"/>
<path id="Rectangle_3" d="M288 0H144V12H288V0Z" fill="#E7E1D9"/>
<path id="Rectangle_4" d="M432 0H288V12H432V0Z" fill="#E8D0CD"/>
<path id="Rectangle_5" d="M576 0H432V12H576V0Z" fill="#A6C3D2"/>
<path id="Rectangle_6" d="M863 0H719V12H863V0Z" fill="#E7E1D9"/>
<path id="Rectangle_7" d="M1008 0H862V12H1008V0Z" fill="#E8D0CD"/>
<path id="Rectangle_8" d="M1152 0H1008V12H1152V0Z" fill="#A6C3D2"/>
<path id="Rectangle_9" d="M1296 0H1152V12H1296V0Z" fill="#CDDBE3"/>
<path id="Rectangle_10" d="M1440 0H1296V12H1440V0Z" fill="#E7E1D9"/>
</g>
</svg>
